<?xml version="1.0" encoding="UTF-8" standalone="no"?>
<svg
   width="16"
   height="16"
   fill="currentColor"
   class="bi bi-bookmark-star-fill"
   viewBox="0 0 16 16"
   version="1.1"
   id="svg1"
   sodipodi:docname="icon.svg"
   inkscape:version="1.4 (e7c3feb1, 2024-10-09)"
   xmlns:inkscape="http://www.inkscape.org/namespaces/inkscape"
   xmlns:sodipodi="http://sodipodi.sourceforge.net/DTD/sodipodi-0.dtd"
   xmlns="http://www.w3.org/2000/svg"
   xmlns:svg="http://www.w3.org/2000/svg">
  <defs
     id="defs1" />
  <sodipodi:namedview
     id="namedview1"
     pagecolor="#ffffff"
     bordercolor="#000000"
     borderopacity="0.25"
     inkscape:showpageshadow="2"
     inkscape:pageopacity="0.0"
     inkscape:pagecheckerboard="0"
     inkscape:deskcolor="#d1d1d1"
     showgrid="false"
     inkscape:zoom="17.561191"
     inkscape:cx="16.143552"
     inkscape:cy="11.075558"
     inkscape:window-width="1440"
     inkscape:window-height="872"
     inkscape:window-x="0"
     inkscape:window-y="0"
     inkscape:window-maximized="1"
     inkscape:current-layer="svg1" />
  <path
     fill-rule="evenodd"
     d="M 2.3751285,15.030918 V 2.3749573 A 1.8749572,1.8749572 0 0 1 4.2500857,0.50000008 H 11.749915 A 1.8749572,1.8749572 0 0 1 13.624872,2.3749573 V 15.030918 a 0.46873929,0.46873929 0 0 1 -0.693734,0.411553 L 8,12.751908 3.0688626,15.442471 A 0.46873929,0.46873929 0 0 1 2.3751285,15.030918 M 8.1499966,4.3436619 a 0.16687119,0.16687119 0 0 0 -0.2999932,0 L 7.255642,5.5483219 A 0.16874614,0.16874614 0 0 1 7.1300199,5.6401948 L 5.7988003,5.8333154 a 0.16687119,0.16687119 0 0 0 -0.091873,0.284056 l 0.961853,0.938416 c 0.039374,0.038437 0.057186,0.093748 0.047811,0.1481217 L 6.4906595,8.5295038 A 0.16687119,0.16687119 0 0 0 6.7325289,8.7048123 L 7.9231267,8.0785766 a 0.16874614,0.16874614 0 0 1 0.154684,0 L 9.2684085,8.7048123 A 0.16687119,0.16687119 0 0 0 9.5093405,8.5295038 L 9.2824707,7.2029716 A 0.16874614,0.16874614 0 0 1 9.3293446,7.05485 L 10.293073,6.1164339 A 0.16687119,0.16687119 0 0 0 10.2012,5.8323779 L 8.8699801,5.6392573 A 0.16874614,0.16874614 0 0 1 8.744358,5.5473844 Z"
     id="path1"
     style="fill:#316df4;fill-opacity:1;stroke-width:0.937479" />
</svg>
