<?xml version="1.0" encoding="UTF-8" standalone="no"?>
<svg
   width="16"
   height="16"
   fill="currentColor"
   class="bi bi-bookmark-star-fill"
   viewBox="0 0 16 16"
   version="1.1"
   id="svg1"
   sodipodi:docname="icon.svg"
   inkscape:version="1.4 (e7c3feb1, 2024-10-09)"
   xmlns:inkscape="http://www.inkscape.org/namespaces/inkscape"
   xmlns:sodipodi="http://sodipodi.sourceforge.net/DTD/sodipodi-0.dtd"
   xmlns="http://www.w3.org/2000/svg"
   xmlns:svg="http://www.w3.org/2000/svg">
  <defs
     id="defs1">
    <inkscape:path-effect
       effect="powerclip"
       message=""
       id="path-effect4"
       is_visible="true"
       lpeversion="1"
       inverse="true"
       flatten="false"
       hide_clip="false" />
    <clipPath
       clipPathUnits="userSpaceOnUse"
       id="clipPath4">
      <path
         fill-rule="evenodd"
         d="m 29.356075,8.4987917 v -9.28103756 a 1.3749685,1.3749685 0 0 1 1.374969,-1.37496854 h 5.499874 a 1.3749685,1.3749685 0 0 1 1.374969,1.37496854 V 8.4987917 A 0.34374212,0.34374212 0 0 1 37.097148,8.8005972 L 33.480981,6.8275178 29.864814,8.8005972 A 0.34374212,0.34374212 0 0 1 29.356075,8.4987917 m 4.234904,-7.83732097 a 0.1223722,0.1223722 0 0 0 -0.219996,0 L 32.935118,1.544888 a 0.12374716,0.12374716 0 0 1 -0.09212,0.067373 L 31.86677,1.7538828 A 0.1223722,0.1223722 0 0 0 31.7994,1.9621905 l 0.705359,0.6881717 c 0.02887,0.028187 0.04194,0.068748 0.03506,0.1086226 L 32.374132,3.731088 a 0.1223722,0.1223722 0 0 0 0.177372,0.1285595 l 0.873105,-0.4592394 a 0.12374716,0.12374716 0 0 1 0.113435,0 l 0.873104,0.4592394 A 0.1223722,0.1223722 0 0 0 34.58783,3.7310879 L 34.421459,2.7582977 a 0.12374716,0.12374716 0 0 1 0.03437,-0.1086225 L 35.162568,1.9615034 A 0.1223722,0.1223722 0 0 0 35.095196,1.7531957 L 34.118968,1.611574 A 0.12374716,0.12374716 0 0 1 34.026848,1.5442 Z"
         id="path4"
         style="display:block;fill:#316df4;fill-opacity:1;stroke-width:0.687485" />
    </clipPath>
  </defs>
  <sodipodi:namedview
     id="namedview1"
     pagecolor="#ffffff"
     bordercolor="#000000"
     borderopacity="0.25"
     inkscape:showpageshadow="2"
     inkscape:pageopacity="0.0"
     inkscape:pagecheckerboard="0"
     inkscape:deskcolor="#d1d1d1"
     showgrid="false"
     inkscape:zoom="13.398187"
     inkscape:cx="18.136782"
     inkscape:cy="12.427054"
     inkscape:window-width="1440"
     inkscape:window-height="872"
     inkscape:window-x="0"
     inkscape:window-y="0"
     inkscape:window-maximized="1"
     inkscape:current-layer="svg1" />
  <path
     d="M 2,1.5 V 15.24063 C 2,15.65938 2.34063,16 2.75938,16 2.91563,16 3.06875,15.9531 3.19688,15.8625 L 8,12.5 12.80313,15.8625 C 12.93125,15.9531 13.08438,16 13.24063,16 13.65938,16 14,15.65938 14,15.24063 V 1.5 C 14,0.67188 13.32813,0 12.5,0 h -9 C 2.67188,0 2,0.67188 2,1.5 Z"
     id="path1"
     style="stroke-width:0.03125;fill:#316df4;fill-opacity:1" />
</svg>
