<?xml version="1.0" encoding="UTF-8" standalone="no"?>
<svg
   width="100"
   height="99.999939"
   fill="currentColor"
   class="bi bi-browser-firefox"
   viewBox="0 0 100 99.999939"
   version="1.1"
   id="svg1"
   sodipodi:docname="logo.svg"
   inkscape:version="1.3.2 (091e20e, 2023-11-25)"
   xmlns:inkscape="http://www.inkscape.org/namespaces/inkscape"
   xmlns:sodipodi="http://sodipodi.sourceforge.net/DTD/sodipodi-0.dtd"
   xmlns="http://www.w3.org/2000/svg"
   xmlns:svg="http://www.w3.org/2000/svg">
  <defs
     id="defs1" />
  <sodipodi:namedview
     id="namedview1"
     pagecolor="#ffffff"
     bordercolor="#000000"
     borderopacity="0.25"
     inkscape:showpageshadow="2"
     inkscape:pageopacity="0.0"
     inkscape:pagecheckerboard="0"
     inkscape:deskcolor="#d1d1d1"
     showgrid="false"
     inkscape:zoom="3.1421176"
     inkscape:cx="43.123784"
     inkscape:cy="51.080201"
     inkscape:window-width="1440"
     inkscape:window-height="872"
     inkscape:window-x="0"
     inkscape:window-y="0"
     inkscape:window-maximized="1"
     inkscape:current-layer="svg1" />
  <path
     d="m 86.341431,21.287572 c 3.45288,1.725 7.87387,7.199999 10.0424,12.268748 a 51.631895,49.999991 0 0 1 3.24637,24.356246 l -0.0581,0.48125 -0.1678,1.4 A 50.070031,48.487492 0 0 1 0,51.593818 v -0.25 q 0.16135,-3.40625 0.735754,-6.762499 c 0.06454,-0.4625 0.484049,-2.625001 0.580859,-3.05625 l 0.06453,-0.31875 A 42.596312,41.249992 0 0 1 8.099742,26.518821 q 2.110455,-2.906249 4.679142,-5.437498 2.258894,-2.2375 4.892122,-4.062499 a 9.6809806,9.374999 0 0 1 1.678035,-0.85625 c -0.116171,1.674999 -0.258159,9.706247 1.72967,12.143747 h 0.01936 a 36.787725,35.624993 0 0 1 12.056051,-9.018749 23.234353,22.499995 0 0 0 0.135534,11.849999 q 0.67767,0.4375 1.290798,0.95 c 0.690577,0.5625 1.458601,1.293749 2.930109,2.706249 l 0.438872,0.4125 0.05809,0.05625 a 12.907973,12.499998 0 0 0 1.3747,1.125 c 2.471877,1.793749 6.086109,3.518749 8.428907,4.631249 1.297251,0.625 2.207263,1.05 2.316981,1.20625 l 0.02582,0.05 c -0.07745,1.20625 -4.485522,5.362498 -6.021569,5.362498 -14.237495,0 -16.548023,8.34375 -16.548023,8.34375 0.561497,6.231248 4.608147,11.493743 9.790697,14.731242 a 25.815947,24.999995 0 0 0 2.833302,1.50625 q 0.735754,0.3125 1.471508,0.5875 c 2.097545,0.718741 4.291902,1.125 6.518528,1.2125 19.639477,0.893741 26.816315,-17.524992 20.194517,-29.65624 v -0.0063 a 19.36196,18.749996 0 0 0 -4.717864,-5.624987 19.36196,18.749996 0 0 0 -3.68523,-2.312499 l -0.01936,-0.01251 a 17.296685,16.749997 0 0 1 12.06896,2.837542 25.299628,24.499995 0 0 0 -21.917736,-12.393748 q -0.748662,0.0063 -1.484417,0.0625 l -0.271066,0.01875 v -0.0063 h -0.01291 a 25.815947,24.999995 0 0 0 -5.16319,0.875 45.177907,43.749992 0 0 0 -2.149179,-1.9625 12.907973,12.499998 0 0 0 -1.290797,-0.95 25.815947,24.999995 0 0 1 -0.56795,-2.393749 32.269933,31.249995 0 0 1 8.72579,-1.806248 l 0.322699,-0.01875 c 0.335607,-0.025 0.806748,-0.0625 1.323067,-0.075 C 51.567355,13.812498 56.323943,5.256249 65.598323,0 l -0.0194,0.03125 0.0194,-0.0062 0.01293,-0.01251 h 0.01292 L 65.637093,4e-5 h 0.09681 a 0.12907973,0.12499998 0 0 1 0.07745,0.04375 15.489569,14.999996 0 0 0 1.32952,3 q 0.580859,0.95625 1.181079,1.856249 c 3.16245,4.837499 6.602433,8.61875 9.958499,12.299998 4.976034,5.462499 9.75844,10.718747 13.14032,18.874997 l -0.007,-0.08125 a 51.631895,49.999991 0 0 0 -5.07289,-14.706208"
     id="path1"
     style="fill:#f8f9fa;fill-opacity:1;stroke-width:6.35119" />
</svg>
