<?xml version="1.0" encoding="UTF-8" standalone="no"?>
<!-- Created with Inkscape (http://www.inkscape.org/) -->

<svg
   width="150"
   height="150"
   viewBox="0 0 39.687502 39.6875"
   version="1.1"
   id="svg360"
   inkscape:version="1.2.2 (b0a8486541, 2022-12-01)"
   sodipodi:docname="github.svg"
   xmlns:inkscape="http://www.inkscape.org/namespaces/inkscape"
   xmlns:sodipodi="http://sodipodi.sourceforge.net/DTD/sodipodi-0.dtd"
   xmlns="http://www.w3.org/2000/svg"
   xmlns:svg="http://www.w3.org/2000/svg">
  <sodipodi:namedview
     id="namedview362"
     pagecolor="#ffffff"
     bordercolor="#000000"
     borderopacity="0.25"
     inkscape:showpageshadow="2"
     inkscape:pageopacity="0.0"
     inkscape:pagecheckerboard="0"
     inkscape:deskcolor="#d1d1d1"
     inkscape:document-units="px"
     showgrid="false"
     inkscape:zoom="1"
     inkscape:cx="-116.5"
     inkscape:cy="47"
     inkscape:window-width="1920"
     inkscape:window-height="1011"
     inkscape:window-x="0"
     inkscape:window-y="0"
     inkscape:window-maximized="1"
     inkscape:current-layer="layer1" />
  <defs
     id="defs357" />
  <g
     inkscape:label="Layer 1"
     inkscape:groupmode="layer"
     id="layer1"
     transform="translate(-64.21904,-123.85538)">
    <rect
       style="fill:#212529;fill-opacity:1;stroke:none;stroke-width:3.12472;stroke-linecap:round;stroke-linejoin:round"
       id="rect371"
       width="39.6875"
       height="39.6875"
       x="64.21904"
       y="123.85538" />
    <path
       fill-rule="evenodd"
       clip-rule="evenodd"
       d="m 84.073912,130.46996 c -7.44551,0 -13.464479,6.06335 -13.464479,13.56453 0,5.99609 3.856561,11.07166 9.206634,12.86807 0.668896,0.13504 0.913911,-0.29187 0.913911,-0.65099 0,-0.31446 -0.02204,-1.39236 -0.02204,-2.51546 -3.745492,0.80863 -4.525459,-1.61698 -4.525459,-1.61698 -0.601925,-1.57206 -1.493788,-1.9761 -1.493788,-1.9761 -1.225896,-0.83095 0.0893,-0.83095 0.0893,-0.83095 1.359842,0.0899 2.073388,1.39236 2.073388,1.39236 1.203574,2.06595 3.143018,1.48221 3.923258,1.12282 0.111344,-0.87588 0.468257,-1.48221 0.847214,-1.819 -2.987299,-0.31447 -6.130313,-1.48221 -6.130313,-6.69255 0,-1.48221 0.534675,-2.69488 1.381889,-3.63801 -0.13367,-0.33679 -0.601924,-1.72943 0.133945,-3.59336 0,0 1.136878,-0.35939 3.700294,1.39237 a 12.945236,12.945236 0 0 1 3.366256,-0.44924 c 1.136878,0 2.295803,0.15737 3.365982,0.44924 2.563693,-1.75176 3.700568,-1.39237 3.700568,-1.39237 0.735867,1.86393 0.267335,3.25657 0.13367,3.59336 0.869535,0.94313 1.382165,2.1558 1.382165,3.63801 0,5.21034 -3.143015,6.35548 -6.152637,6.69255 0.490577,0.42664 0.913908,1.23499 0.913908,2.51518 0,1.81901 -0.02204,3.27889 -0.02204,3.72786 0,0.35939 0.24529,0.7863 0.913914,0.65153 5.350076,-1.79695 9.206634,-6.87225 9.206634,-12.86834 0.02199,-7.50118 -6.018972,-13.56453 -13.442156,-13.56453 z"
       fill="#ffffff"
       id="path1251"
       style="fill:#ffffff;stroke:none;stroke-width:0.275606" />
  </g>
</svg>
