<?xml version="1.0" encoding="UTF-8" standalone="no"?>
<svg
   viewBox="52 42 150 150"
   version="1.1"
   id="svg12"
   sodipodi:docname="gmail.svg"
   width="150"
   height="150"
   inkscape:version="1.2.2 (b0a8486541, 2022-12-01)"
   xmlns:inkscape="http://www.inkscape.org/namespaces/inkscape"
   xmlns:sodipodi="http://sodipodi.sourceforge.net/DTD/sodipodi-0.dtd"
   xmlns="http://www.w3.org/2000/svg"
   xmlns:svg="http://www.w3.org/2000/svg">
  <defs
     id="defs16" />
  <sodipodi:namedview
     id="namedview14"
     pagecolor="#ffffff"
     bordercolor="#000000"
     borderopacity="0.25"
     inkscape:showpageshadow="2"
     inkscape:pageopacity="0.0"
     inkscape:pagecheckerboard="0"
     inkscape:deskcolor="#d1d1d1"
     showgrid="false"
     inkscape:zoom="1.4142136"
     inkscape:cx="6.0104075"
     inkscape:cy="183.14065"
     inkscape:window-width="1920"
     inkscape:window-height="1011"
     inkscape:window-x="0"
     inkscape:window-y="0"
     inkscape:window-maximized="1"
     inkscape:current-layer="svg12" />
  <rect
     style="fill:#212529;fill-opacity:1;stroke:none;stroke-width:11.81;stroke-linecap:round;stroke-linejoin:round"
     id="rect371"
     width="150"
     height="150"
     x="52"
     y="42" />
  <g
     id="g304"
     transform="matrix(1.1363636,0,0,1.1363636,17.9091,31.7824)">
    <path
       fill="#4285f4"
       d="M 58,108 H 72 V 74 L 52,59 v 43 c 0,3.32 2.69,6 6,6"
       id="path2" />
    <path
       fill="#34a853"
       d="m 120,108 h 14 c 3.32,0 6,-2.69 6,-6 V 59 l -20,15"
       id="path4" />
    <path
       fill="#fbbc04"
       d="m 120,48 v 26 l 20,-15 v -8 c 0,-7.42 -8.47,-11.65 -14.4,-7.2"
       id="path6" />
    <path
       fill="#ea4335"
       d="M 72,74 V 48 L 96,66 120,48 V 74 L 96,92"
       id="path8" />
    <path
       fill="#c5221f"
       d="m 52,51 v 8 L 72,74 V 48 L 66.4,43.8 C 60.46,39.35 52,43.58 52,51"
       id="path10" />
  </g>
</svg>
