<?xml version="1.0" encoding="UTF-8" standalone="no"?>
<svg
   viewBox="0 0 150 150"
   version="1.1"
   id="svg12"
   sodipodi:docname="maps.svg"
   width="150"
   height="150"
   inkscape:version="1.2.2 (b0a8486541, 2022-12-01)"
   xmlns:inkscape="http://www.inkscape.org/namespaces/inkscape"
   xmlns:sodipodi="http://sodipodi.sourceforge.net/DTD/sodipodi-0.dtd"
   xmlns="http://www.w3.org/2000/svg"
   xmlns:svg="http://www.w3.org/2000/svg">
  <defs
     id="defs16" />
  <sodipodi:namedview
     id="namedview14"
     pagecolor="#ffffff"
     bordercolor="#000000"
     borderopacity="0.25"
     inkscape:showpageshadow="2"
     inkscape:pageopacity="0.0"
     inkscape:pagecheckerboard="0"
     inkscape:deskcolor="#d1d1d1"
     showgrid="false"
     inkscape:zoom="1"
     inkscape:cx="78.5"
     inkscape:cy="3"
     inkscape:window-width="1920"
     inkscape:window-height="1011"
     inkscape:window-x="0"
     inkscape:window-y="0"
     inkscape:window-maximized="1"
     inkscape:current-layer="svg12" />
  <g
     id="g1082"
     transform="matrix(9.6165312,0,0,9.6165312,-18.26247,-4.212042)"
     style="fill:#212529;stroke:none;fill-opacity:1">
    <rect
       style="fill:#212529;fill-opacity:1;stroke:none;stroke-width:1.22809;stroke-linecap:round;stroke-linejoin:round"
       id="rect371"
       width="15.59814"
       height="15.59814"
       x="1.8990701"
       y="0.43800011" />
  </g>
  <g
     id="g311"
     transform="matrix(0.75528701,0,0,0.75528701,40.10574,24.999999)">
    <path
       fill="#1a73e8"
       d="M 60.2,2.2 C 55.8,0.8 51,0 46.1,0 32,0 19.3,6.4 10.8,16.5 l 21.8,18.3 z"
       id="path2" />
    <path
       fill="#ea4335"
       d="M 10.8,16.5 C 4.1,24.5 0,34.9 0,46.1 c 0,8.7 1.7,15.7 4.6,22 l 28,-33.3 z"
       id="path4" />
    <path
       fill="#4285f4"
       d="m 46.2,28.5 c 9.8,0 17.7,7.9 17.7,17.7 0,4.3 -1.6,8.3 -4.2,11.4 0,0 13.9,-16.6 27.5,-32.7 C 81.6,14.1 71.9,5.9 60.2,2.2 L 32.6,34.8 c 3.3,-3.8 8.1,-6.3 13.6,-6.3"
       id="path6" />
    <path
       fill="#fbbc04"
       d="m 46.2,63.8 c -9.8,0 -17.7,-7.9 -17.7,-17.7 0,-4.3 1.5,-8.3 4.1,-11.3 L 4.6,68.1 C 9.4,78.7 17.4,87.3 25.6,98 L 59.7,57.5 c -3.3,3.9 -8.1,6.3 -13.5,6.3"
       id="path8" />
    <path
       fill="#34a853"
       d="m 59.1,109.2 c 15.4,-24.1 33.3,-35 33.3,-63 0,-7.7 -1.9,-14.9 -5.2,-21.3 L 25.6,98 c 2.6,3.4 5.3,7.3 7.9,11.3 9.4,14.5 6.8,23.1 12.8,23.1 6,0 3.4,-8.7 12.8,-23.2"
       id="path10" />
  </g>
</svg>
