<?xml version="1.0" encoding="UTF-8" standalone="no"?>
<svg
   width="150"
   height="150"
   viewBox="0 0 150 150"
   version="1.1"
   id="svg17"
   sodipodi:docname="osn.svg"
   inkscape:version="1.2.2 (b0a8486541, 2022-12-01)"
   xmlns:inkscape="http://www.inkscape.org/namespaces/inkscape"
   xmlns:sodipodi="http://sodipodi.sourceforge.net/DTD/sodipodi-0.dtd"
   xmlns:xlink="http://www.w3.org/1999/xlink"
   xmlns="http://www.w3.org/2000/svg"
   xmlns:svg="http://www.w3.org/2000/svg"
   xmlns:rdf="http://www.w3.org/1999/02/22-rdf-syntax-ns#"
   xmlns:cc="http://creativecommons.org/ns#"
   xmlns:dc="http://purl.org/dc/elements/1.1/">
  <metadata
     id="metadata21">
    <rdf:RDF>
      <cc:Work
         rdf:about="">
        <dc:format>image/svg+xml</dc:format>
        <dc:type
           rdf:resource="http://purl.org/dc/dcmitype/StillImage" />
      </cc:Work>
    </rdf:RDF>
  </metadata>
  <sodipodi:namedview
     pagecolor="#ffffff"
     bordercolor="#666666"
     borderopacity="1"
     objecttolerance="10"
     gridtolerance="10"
     guidetolerance="10"
     inkscape:pageopacity="0"
     inkscape:pageshadow="2"
     inkscape:window-width="1920"
     inkscape:window-height="1011"
     id="namedview19"
     showgrid="false"
     fit-margin-top="0"
     fit-margin-left="0"
     fit-margin-right="0"
     fit-margin-bottom="0"
     inkscape:zoom="1"
     inkscape:cx="118.5"
     inkscape:cy="92"
     inkscape:window-x="0"
     inkscape:window-y="0"
     inkscape:window-maximized="1"
     inkscape:current-layer="svg17"
     inkscape:showpageshadow="2"
     inkscape:pagecheckerboard="0"
     inkscape:deskcolor="#d1d1d1" />
  <!-- Generator: Sketch 63.1 (92452) - https://sketch.com -->
  <defs
     id="defs3">
    <polygon
       id="path-1"
       points="0,23.920522 0,0 36.78722,0 36.78722,23.920522 " />
  </defs>
  <g
     id="g1082"
     transform="matrix(9.6165312,0,0,9.6165312,-18.26247,-4.212042)"
     style="fill:#212529;stroke:none;fill-opacity:1">
    <rect
       style="fill:#212529;fill-opacity:1;stroke:none;stroke-width:1.22809;stroke-linecap:round;stroke-linejoin:round"
       id="rect371"
       width="15.59814"
       height="15.59814"
       x="1.8990701"
       y="0.43800011" />
  </g>
  <g
     id="osn-new-red"
     transform="matrix(2.7183353,0,0,2.7183353,-8.01695,42.487999)"
     style="fill:none;fill-rule:evenodd;stroke:none;stroke-width:1">
    <g
       id="Group-3"
       transform="translate(12.146018)">
      <mask
         id="mask-2"
         fill="#ffffff">
        <use
           xlink:href="#path-1"
           id="use6"
           x="0"
           y="0"
           width="100%"
           height="100%" />
      </mask>
      <g
         id="Clip-2" />
      <path
         d="M 25.424755,-4.4776119e-5 C 19.993506,1.8762537 17.302938,6.2387015 16.670445,11.960104 c -0.586877,5.309732 -3.643625,7.759254 -6.457992,8.712359 l 1.150182,3.248059 c 5.43125,-1.876209 8.121818,-6.238746 8.75431,-11.960059 0.586878,-5.3097317 3.643626,-7.759254 6.457903,-8.7123585 z M 22.532383,11.960104 c 0,-4.1785965 3.190984,-7.0942383 7.127374,-7.0942383 3.936389,0 7.127463,2.9156418 7.127463,7.0942383 v 6.556747 h -3.592972 v -6.556747 c 0,-2.3338204 -1.582402,-3.73791 -3.534491,-3.73791 -1.952001,0 -3.534402,1.4040896 -3.534402,3.73791 l -0.0094,6.556747 H 22.532383 Z M 7.1273642,8.222194 c -1.952,0 -3.5344012,1.4040896 -3.5344012,3.73791 0,2.268806 1.5824012,3.762359 3.5344012,3.762359 1.9520899,0 3.5345808,-1.493553 3.5345808,-3.762359 0,-2.3338204 -1.5824909,-3.73791 -3.5345808,-3.73791 z m 7.1274628,3.73791 c 0,4.178687 -3.191073,7.094239 -7.1274628,7.094239 -3.9362995,0 -7.1273731970501,-2.915552 -7.1273731970501,-7.094239 0,-4.1785965 3.1910736970501,-7.0942383 7.1273731970501,-7.0942383 3.9363898,0 7.1274628,2.9156418 7.1274628,7.0942383 z"
         id="Fill-1"
         mask="url(#mask-2)"
         inkscape:connector-curvature="0"
         style="fill:#ff0000" />
    </g>
  </g>
</svg>
