<?xml version="1.0" encoding="UTF-8" standalone="no"?>
<!-- Generator: Adobe Illustrator 21.1.0, SVG Export Plug-In . SVG Version: 6.00 Build 0)  -->

<svg
   version="1.1"
   x="0px"
   y="0px"
   viewBox="0 0 150.00001 149.99999"
   xml:space="preserve"
   id="svg906"
   sodipodi:docname="reddit.svg"
   width="150"
   height="150"
   inkscape:version="1.2.2 (b0a8486541, 2022-12-01)"
   xmlns:inkscape="http://www.inkscape.org/namespaces/inkscape"
   xmlns:sodipodi="http://sodipodi.sourceforge.net/DTD/sodipodi-0.dtd"
   xmlns="http://www.w3.org/2000/svg"
   xmlns:svg="http://www.w3.org/2000/svg"><defs
   id="defs910">
	

		
		
	
			
			
		
			
			
			
			
			
			
			
		</defs><sodipodi:namedview
   id="namedview908"
   pagecolor="#ffffff"
   bordercolor="#666666"
   borderopacity="1.0"
   inkscape:pageshadow="2"
   inkscape:pageopacity="0.0"
   inkscape:pagecheckerboard="0"
   showgrid="false"
   fit-margin-top="0"
   fit-margin-left="0"
   fit-margin-right="0"
   fit-margin-bottom="0"
   inkscape:zoom="1"
   inkscape:cx="77.5"
   inkscape:cy="75"
   inkscape:window-width="1920"
   inkscape:window-height="1011"
   inkscape:window-x="0"
   inkscape:window-y="0"
   inkscape:window-maximized="1"
   inkscape:current-layer="svg906"
   inkscape:showpageshadow="2"
   inkscape:deskcolor="#d1d1d1" />
<style
   type="text/css"
   id="style868">
	.st0{fill:#FF4500;}
	.st1{fill:#222222;}
	.st2{fill:#FFFFFF;}
	.st3{display:none;}
	.st4{display:inline;fill:none;stroke:#D8D8D8;stroke-width:0.4925;stroke-miterlimit:10;}
	.st5{display:inline;fill:none;stroke:#D8D8D8;stroke-width:0.5589;stroke-miterlimit:10;}
	.st6{display:inline;}
</style>
<g
   id="g1082"
   transform="matrix(9.6165312,0,0,9.6165312,-18.26247,-4.21204)"
   style="fill:#212529;stroke:none;fill-opacity:1"><rect
     style="fill:#212529;fill-opacity:1;stroke:none;stroke-width:1.22809;stroke-linecap:round;stroke-linejoin:round"
     id="rect371"
     width="15.59814"
     height="15.59814"
     x="1.8990701"
     y="0.43800011" /></g><g
   id="g403"
   transform="translate(7.42605,125)"><circle
     class="st0"
     cx="67.573944"
     cy="-50"
     r="50"
     id="circle886"
     style="stroke-width:0.596659" /><path
     class="st2"
     d="m 100.92716,-50.000002 c 0,-4.057279 -3.281623,-7.279236 -7.279236,-7.279236 -1.968974,0 -3.75895,0.775657 -5.071599,2.02864 -5.011933,-3.579952 -11.873508,-5.906921 -19.510739,-6.205251 l 3.341289,-15.632457 10.859188,2.326969 c 0.119332,2.74463 2.386635,4.952267 5.19093,4.952267 2.863962,0 5.190931,-2.326969 5.190931,-5.190931 0,-2.863962 -2.326969,-5.19093 -5.190931,-5.19093 -2.028639,0 -3.818615,1.193317 -4.653937,2.923627 l -12.112172,-2.565632 c -0.357995,-0.05967 -0.71599,0 -0.954654,0.178997 -0.298329,0.178998 -0.477327,0.477327 -0.536993,0.835322 l -3.699283,17.422434 c -7.756563,0.238664 -14.73747,2.565633 -19.809069,6.205251 -1.312649,-1.252984 -3.102625,-2.02864 -5.071599,-2.02864 -4.057279,0 -7.279236,3.281623 -7.279236,7.279236 0,2.983294 1.789976,5.48926 4.295943,6.622912 -0.119332,0.71599 -0.178998,1.43198 -0.178998,2.207637 0,11.217183 13.066825,20.346061 29.17661,20.346061 16.109785,0 29.17661,-9.069212 29.17661,-20.346061 0,-0.715991 -0.05967,-1.491647 -0.178998,-2.207637 2.505967,-1.133652 4.295943,-3.699284 4.295943,-6.682578 z m -49.999998,5.190931 c 0,-2.863962 2.326969,-5.190931 5.19093,-5.190931 2.863962,0 5.190931,2.326969 5.190931,5.190931 0,2.863962 -2.326969,5.19093 -5.190931,5.19093 -2.863961,0.05967 -5.19093,-2.326968 -5.19093,-5.19093 z m 29.057278,13.782816 c -3.579952,3.579952 -10.381861,3.818615 -12.350835,3.818615 -2.028639,0 -8.830549,-0.298329 -12.350835,-3.818615 -0.536993,-0.536993 -0.536993,-1.372315 0,-1.909308 0.536993,-0.536993 1.372315,-0.536993 1.909308,0 2.267303,2.267303 7.040573,3.042959 10.441527,3.042959 3.400955,0 8.23389,-0.775656 10.441527,-3.042959 0.536993,-0.536993 1.372315,-0.536993 1.909308,0 0.477327,0.536993 0.477327,1.372315 0,1.909308 z m -0.954654,-8.53222 c -2.863962,0 -5.190931,-2.326969 -5.190931,-5.19093 0,-2.863962 2.326969,-5.190931 5.190931,-5.190931 2.863962,0 5.190931,2.326969 5.190931,5.190931 0,2.804296 -2.326969,5.19093 -5.190931,5.19093 z"
     id="path888"
     style="stroke-width:0.596659" /></g>
<g
   id="Spacing_Guides"
   class="st3"
   transform="translate(-392.02397,-181.25664)">
	<rect
   class="st4"
   width="598.59998"
   height="55.900002"
   id="rect895"
   x="0"
   y="0" />
	<rect
   y="223.60001"
   class="st4"
   width="598.59998"
   height="55.900002"
   id="rect897"
   x="0" />
	<rect
   x="0"
   class="st5"
   width="55.900002"
   height="279.60001"
   id="rect899"
   y="0" />
	<rect
   x="542.70001"
   class="st5"
   width="55.900002"
   height="279.60001"
   id="rect901"
   y="0" />
	<g
   id="reddit_round"
   class="st6">
	</g>
	<g
   id="icon_2"
   class="st6">
	</g>
</g>
</svg>
