<?xml version="1.0" encoding="UTF-8" standalone="no"?>
<svg
   xml:space="preserve"
   viewBox="0 0 100 100"
   version="1.1"
   id="svg4"
   sodipodi:docname="twitter.svg"
   width="100"
   height="100"
   inkscape:version="1.2.2 (b0a8486541, 2022-12-01)"
   xmlns:inkscape="http://www.inkscape.org/namespaces/inkscape"
   xmlns:sodipodi="http://sodipodi.sourceforge.net/DTD/sodipodi-0.dtd"
   xmlns="http://www.w3.org/2000/svg"
   xmlns:svg="http://www.w3.org/2000/svg"><defs
   id="defs8" /><sodipodi:namedview
   id="namedview6"
   pagecolor="#ffffff"
   bordercolor="#000000"
   borderopacity="0.25"
   inkscape:showpageshadow="2"
   inkscape:pageopacity="0.0"
   inkscape:pagecheckerboard="0"
   inkscape:deskcolor="#d1d1d1"
   showgrid="false"
   inkscape:zoom="1.355288"
   inkscape:cx="-94.813796"
   inkscape:cy="68.620101"
   inkscape:window-width="1920"
   inkscape:window-height="1011"
   inkscape:window-x="0"
   inkscape:window-y="0"
   inkscape:window-maximized="1"
   inkscape:current-layer="svg4" />
  <g
   id="g238"
   transform="matrix(0.66666668,0,0,0.66666668,1.8080826e-6,1.6661644e-7)"><g
     id="g1082"
     transform="matrix(9.6165312,0,0,9.6165312,-18.26247,-4.212042)"
     style="fill:#212529;fill-opacity:1;stroke:none"><rect
       style="fill:#212529;fill-opacity:1;stroke:none;stroke-width:1.22809;stroke-linecap:round;stroke-linejoin:round"
       id="rect371"
       width="15.59814"
       height="15.59814"
       x="1.8990701"
       y="0.43800011" /></g><path
     fill="#1d9bf0"
     d="m 114.76234,54.600364 c 0.0609,0.88158 0.0609,1.76316 0.0609,2.65286 0,27.109485 -20.63783,58.374976 -58.37498,58.374976 v -0.0163 c -11.14767,0.0163 -22.06378,-3.17693 -31.4483,-9.19765 1.62096,0.19501 3.25005,0.29251 4.8832,0.29657 9.23827,0.008 18.21247,-3.09161 25.4804,-8.799512 -8.7792,-0.166565 -16.47776,-5.890717 -19.16718,-14.24741 3.07536,0.593134 6.24416,0.471257 9.26265,-0.353443 C 35.88763,81.376724 29.00159,72.967218 29.00159,63.200814 v -0.26 c 2.85191,1.58846 6.04509,2.47004 9.31139,2.56754 -9.01483,-6.02478 -11.79362,-18.017471 -6.34979,-27.393871 10.41641,12.817391 25.78509,20.609391 42.28316,21.434091 -1.65346,-7.12574 0.60532,-14.592731 5.93541,-19.60187 8.26325,-7.767621 21.25939,-7.369491 29.02701,0.8897 4.59476,-0.90595 8.99858,-2.591921 13.02864,-4.980701 -1.53158,4.749131 -4.73694,8.783261 -9.01889,11.34674 4.06663,-0.47939 8.03982,-1.56815 11.78144,-3.229739 -2.75442,4.127559 -6.22385,7.72293 -10.23766,10.62766 z"
     id="path2"
     style="stroke-width:0.406256" /></g>
</svg>
