<?xml version="1.0" encoding="UTF-8" standalone="no"?>
<svg
   xml:space="preserve"
   viewBox="0 0 100 100"
   version="1.1"
   id="svg4"
   sodipodi:docname="twitter.svg"
   width="100"
   height="100"
   inkscape:version="1.2.2 (b0a8486541, 2022-12-01)"
   xmlns:inkscape="http://www.inkscape.org/namespaces/inkscape"
   xmlns:sodipodi="http://sodipodi.sourceforge.net/DTD/sodipodi-0.dtd"
   xmlns="http://www.w3.org/2000/svg"
   xmlns:svg="http://www.w3.org/2000/svg"><defs
   id="defs8" /><sodipodi:namedview
   id="namedview6"
   pagecolor="#ffffff"
   bordercolor="#000000"
   borderopacity="0.25"
   inkscape:showpageshadow="2"
   inkscape:pageopacity="0.0"
   inkscape:pagecheckerboard="0"
   inkscape:deskcolor="#d1d1d1"
   showgrid="false"
   inkscape:zoom="3.2029267"
   inkscape:cx="16.391259"
   inkscape:cy="43.710023"
   inkscape:window-width="1280"
   inkscape:window-height="731"
   inkscape:window-x="0"
   inkscape:window-y="0"
   inkscape:window-maximized="1"
   inkscape:current-layer="svg4" />
  <path
   fill="#1d9bf0"
   d="m 76.508254,36.400243 c 0.0406,0.58772 0.0406,1.17544 0.0406,1.768573 0,18.07299 -13.758554,38.916651 -38.916654,38.916651 v -0.01087 c -7.43178,0.01087 -14.709187,-2.117954 -20.965534,-6.131767 1.08064,0.130007 2.1667,0.195007 3.255467,0.197713 6.158847,0.0053 12.141647,-2.061073 16.986934,-5.866341 -5.852801,-0.111044 -10.985174,-3.927145 -12.778121,-9.498274 2.05024,0.395423 4.162774,0.314172 6.1751,-0.235628 C 23.925113,54.25115 19.33442,48.644812 19.33442,42.133876 v -0.173333 c 1.901273,1.058973 4.03006,1.646693 6.207593,1.711693 -6.009887,-4.01652 -7.862414,-12.011648 -4.233193,-18.262581 6.944273,8.544928 17.19006,13.739594 28.188773,14.289394 -1.102306,-4.750493 0.403547,-9.728487 3.956941,-13.067913 5.508833,-5.178414 14.172926,-4.912994 19.35134,0.593133 3.063173,-0.603967 5.999053,-1.727947 8.68576,-3.320467 -1.021053,3.166087 -3.15796,5.855507 -6.012593,7.564493 2.711086,-0.319593 5.35988,-1.045433 7.854293,-2.153159 -1.83628,2.751706 -4.149233,5.14862 -6.825107,7.085107 z"
   id="path2"
   style="stroke-width:0.270837" />
</svg>
