<?xml version="1.0" encoding="UTF-8" standalone="no"?>
<svg
   width="100"
   height="100"
   version="1.1"
   id="svg6"
   sodipodi:docname="youtube.svg"
   inkscape:version="1.2.2 (b0a8486541, 2022-12-01)"
   xmlns:inkscape="http://www.inkscape.org/namespaces/inkscape"
   xmlns:sodipodi="http://sodipodi.sourceforge.net/DTD/sodipodi-0.dtd"
   xmlns="http://www.w3.org/2000/svg"
   xmlns:svg="http://www.w3.org/2000/svg">
  <defs
     id="defs10" />
  <sodipodi:namedview
     id="namedview8"
     pagecolor="#ffffff"
     bordercolor="#000000"
     borderopacity="0.25"
     inkscape:showpageshadow="2"
     inkscape:pageopacity="0.0"
     inkscape:pagecheckerboard="0"
     inkscape:deskcolor="#d1d1d1"
     showgrid="false"
     inkscape:zoom="1"
     inkscape:cx="164.5"
     inkscape:cy="73"
     inkscape:window-width="1920"
     inkscape:window-height="1011"
     inkscape:window-x="0"
     inkscape:window-y="0"
     inkscape:window-maximized="1"
     inkscape:current-layer="svg6" />
  <g
     id="g242"
     transform="matrix(0.66666668,0,0,0.66666668,1.8080826e-6,1.6661644e-7)">
    <g
       id="g1082"
       transform="matrix(9.6165312,0,0,9.6165312,-18.26247,-4.212042)"
       style="fill:#212529;fill-opacity:1;stroke:none">
      <rect
         style="fill:#212529;fill-opacity:1;stroke:none;stroke-width:1.22809;stroke-linecap:round;stroke-linejoin:round"
         id="rect371"
         width="15.59814"
         height="15.59814"
         x="1.8990701"
         y="0.43800011" />
    </g>
    <g
       id="g248"
       transform="matrix(0.6400781,0,0,0.6400781,24.20901,39.783652)">
      <path
         d="M 154,17.5 C 152.18,10.77 146.93,5.5 140.2,3.7 131.16,0.21 43.6,-1.5 18.2,3.8 11.47,5.62 6.2,10.87 4.4,17.6 0.32,35.5 0.01,74.2 4.5,92.5 c 1.82,6.73 7.07,12 13.8,13.8 17.9,4.12 103,4.7 122,0 6.73,-1.82 12,-7.07 13.8,-13.8 4.35,-19.5 4.66,-55.8 -0.1,-75 z"
         fill="#ff0000"
         id="path2" />
      <path
         d="M 105,55 64.2,31.6 v 46.8 z"
         fill="#ffffff"
         id="path4" />
    </g>
  </g>
</svg>
