<?xml version="1.0" encoding="UTF-8" standalone="no"?>
<!-- Created with Inkscape (http://www.inkscape.org/) -->

<svg
   width="100"
   height="100"
   viewBox="0 0 26.458335 26.458333"
   version="1.1"
   id="svg360"
   inkscape:version="1.2.2 (b0a8486541, 2022-12-01)"
   sodipodi:docname="github.svg"
   xmlns:inkscape="http://www.inkscape.org/namespaces/inkscape"
   xmlns:sodipodi="http://sodipodi.sourceforge.net/DTD/sodipodi-0.dtd"
   xmlns="http://www.w3.org/2000/svg"
   xmlns:svg="http://www.w3.org/2000/svg">
  <sodipodi:namedview
     id="namedview362"
     pagecolor="#ffffff"
     bordercolor="#000000"
     borderopacity="0.25"
     inkscape:showpageshadow="2"
     inkscape:pageopacity="0.0"
     inkscape:pagecheckerboard="0"
     inkscape:deskcolor="#d1d1d1"
     inkscape:document-units="px"
     showgrid="false"
     inkscape:zoom="2.3125"
     inkscape:cx="74.162162"
     inkscape:cy="58.378378"
     inkscape:window-width="1280"
     inkscape:window-height="731"
     inkscape:window-x="0"
     inkscape:window-y="0"
     inkscape:window-maximized="1"
     inkscape:current-layer="layer1" />
  <defs
     id="defs357" />
  <g
     inkscape:label="Layer 1"
     inkscape:groupmode="layer"
     id="layer1"
     transform="translate(-64.21904,-123.85538)">
    <path
       fill-rule="evenodd"
       clip-rule="evenodd"
       d="m 77.455621,128.2651 c -4.963674,0 -8.97632,4.04223 -8.97632,9.04302 0,3.99739 2.571041,7.38111 6.137756,8.57871 0.445931,0.09 0.609274,-0.19458 0.609274,-0.43399 0,-0.20964 -0.01469,-0.92824 -0.01469,-1.67697 -2.496995,0.53908 -3.016973,-1.07799 -3.016973,-1.07799 -0.401283,-1.04804 -0.995858,-1.3174 -0.995858,-1.3174 -0.817264,-0.55397 0.05953,-0.55397 0.05953,-0.55397 0.906561,0.0599 1.382259,0.92824 1.382259,0.92824 0.802382,1.3773 2.095345,0.98814 2.615505,0.74855 0.07423,-0.58392 0.312171,-0.98814 0.564809,-1.21267 -1.991532,-0.20964 -4.086875,-0.98814 -4.086875,-4.4617 0,-0.98814 0.35645,-1.79658 0.921259,-2.42534 -0.08911,-0.22452 -0.401282,-1.15295 0.0893,-2.39557 0,0 0.757919,-0.23959 2.466863,0.92825 a 8.6301575,8.6301575 0 0 1 2.24417,-0.2995 c 0.757919,0 1.530536,0.10492 2.243988,0.2995 1.709129,-1.16784 2.467046,-0.92825 2.467046,-0.92825 0.490578,1.24262 0.178223,2.17105 0.08911,2.39557 0.57969,0.62876 0.921444,1.4372 0.921444,2.42534 0,3.47356 -2.095344,4.23699 -4.101759,4.4617 0.327052,0.28443 0.609272,0.82333 0.609272,1.67679 0,1.21267 -0.01469,2.18593 -0.01469,2.48524 0,0.23959 0.163527,0.5242 0.609276,0.43435 3.566718,-1.19796 6.137756,-4.5815 6.137756,-8.57889 0.01466,-5.00079 -4.012648,-9.04302 -8.961437,-9.04302 z"
       fill="#ffffff"
       id="path1251"
       style="fill:#ffffff;stroke:none;stroke-width:0.183737" />
  </g>
</svg>
