<?xml version="1.0" encoding="UTF-8" standalone="no"?>
<svg
   width="100"
   height="100"
   version="1.1"
   id="svg6"
   sodipodi:docname="youtube.svg"
   inkscape:version="1.2.2 (b0a8486541, 2022-12-01)"
   xmlns:inkscape="http://www.inkscape.org/namespaces/inkscape"
   xmlns:sodipodi="http://sodipodi.sourceforge.net/DTD/sodipodi-0.dtd"
   xmlns="http://www.w3.org/2000/svg"
   xmlns:svg="http://www.w3.org/2000/svg">
  <defs
     id="defs10" />
  <sodipodi:namedview
     id="namedview8"
     pagecolor="#ffffff"
     bordercolor="#000000"
     borderopacity="0.25"
     inkscape:showpageshadow="2"
     inkscape:pageopacity="0.0"
     inkscape:pagecheckerboard="0"
     inkscape:deskcolor="#d1d1d1"
     showgrid="false"
     inkscape:zoom="1.7109375"
     inkscape:cx="53.479452"
     inkscape:cy="101.69863"
     inkscape:window-width="1280"
     inkscape:window-height="731"
     inkscape:window-x="0"
     inkscape:window-y="0"
     inkscape:window-maximized="1"
     inkscape:current-layer="svg6" />
  <g
     id="g248"
     transform="matrix(0.42671874,0,0,0.42671874,16.139341,26.522435)">
    <path
       d="M 154,17.5 C 152.18,10.77 146.93,5.5 140.2,3.7 131.16,0.21 43.6,-1.5 18.2,3.8 11.47,5.62 6.2,10.87 4.4,17.6 0.32,35.5 0.01,74.2 4.5,92.5 c 1.82,6.73 7.07,12 13.8,13.8 17.9,4.12 103,4.7 122,0 6.73,-1.82 12,-7.07 13.8,-13.8 4.35,-19.5 4.66,-55.8 -0.1,-75 z"
       fill="#ff0000"
       id="path2" />
    <path
       d="M 105,55 64.2,31.6 v 46.8 z"
       fill="#ffffff"
       id="path4" />
  </g>
</svg>
